<svg width="1280" height="720" xmlns="http://www.w3.org/2000/svg" xmlns:xlink="http://www.w3.org/1999/xlink" overflow="hidden"><defs><clipPath id="clip0"><rect x="0" y="0" width="1280" height="720"/></clipPath><linearGradient x1="640" y1="0" x2="640" y2="720" gradientUnits="userSpaceOnUse" spreadMethod="reflect" id="fill1"><stop offset="0" stop-color="#FFFFFF"/><stop offset="0.74" stop-color="#ABC0E4"/><stop offset="0.83" stop-color="#ABC0E4"/><stop offset="1" stop-color="#C7D5ED"/></linearGradient></defs><g clip-path="url(#clip0)"><rect x="0" y="0" width="1280" height="720" fill="url(#fill1)"/><rect x="0.500053" y="0.500053" width="1289" height="720" stroke="#767171" stroke-width="1.33333" stroke-miterlimit="8" fill="#016917"/><path d="M1267.5 132.5 22.5007 132.5C10.3501 132.5 0.500122 122.65 0.500122 110.499L0.500122 0.500061 1289.5 0.500061 1289.5 110.499C1289.5 122.65 1279.65 132.5 1267.5 132.5Z" stroke="#767171" stroke-width="1.33333" stroke-miterlimit="8" fill="#548235" fill-rule="evenodd"/><path d="M427.5 65.5005C427.5 53.35 437.35 43.5001 449.5 43.5001L597.5 43.5001C609.65 43.5001 619.5 53.35 619.5 65.5005L619.5 153.5C619.5 165.65 609.65 175.5 597.5 175.5L449.5 175.5C437.35 175.5 427.5 165.65 427.5 153.5Z" stroke="#016917" stroke-width="1.33333" stroke-miterlimit="8" fill="#548235" fill-rule="evenodd"/><text fill="#FFFFFF" font-family="Calibri,Calibri_MSFontService,sans-serif" font-weight="700" font-size="17" transform="translate(427.642 79)">| Faturamento</text><text fill="#FFFFFF" font-family="Calibri,Calibri_MSFontService,sans-serif" font-weight="700" font-size="17" transform="translate(536.469 79)">Minasul</text><path d="M643.5 65.5005C643.5 53.35 653.35 43.5001 665.5 43.5001L813.5 43.5001C825.65 43.5001 835.5 53.35 835.5 65.5005L835.5 153.5C835.5 165.65 825.65 175.5 813.5 175.5L665.5 175.5C653.35 175.5 643.5 165.65 643.5 153.5Z" stroke="#016917" stroke-width="1.33333" stroke-miterlimit="8" fill="#548235" fill-rule="evenodd"/><text fill="#FFFFFF" font-family="Calibri,Calibri_MSFontService,sans-serif" font-weight="700" font-size="17" transform="translate(649.6 79)">| Faturamento</text><text fill="#FFFFFF" font-family="Calibri,Calibri_MSFontService,sans-serif" font-weight="700" font-size="17" transform="translate(758.427 79)">Cocatrel</text><path d="M865.5 65.5005C865.5 53.35 875.35 43.5001 887.5 43.5001L1035.5 43.5001C1047.65 43.5001 1057.5 53.35 1057.5 65.5005L1057.5 153.5C1057.5 165.65 1047.65 175.5 1035.5 175.5L887.5 175.5C875.35 175.5 865.5 165.65 865.5 153.5Z" stroke="#016917" stroke-width="1.33333" stroke-miterlimit="8" fill="#548235" fill-rule="evenodd"/><text fill="#FFFFFF" font-family="Calibri,Calibri_MSFontService,sans-serif" font-weight="700" font-size="17" transform="translate(865.108 79)">| Faturamento Terceiros</text><path d="M1083.5 65.5005C1083.5 53.35 1093.35 43.5001 1105.5 43.5001L1253.5 43.5001C1265.65 43.5001 1275.5 53.35 1275.5 65.5005L1275.5 153.5C1275.5 165.65 1265.65 175.5 1253.5 175.5L1105.5 175.5C1093.35 175.5 1083.5 165.65 1083.5 153.5Z" stroke="#016917" stroke-width="1.33333" stroke-miterlimit="8" fill="#548235" fill-rule="evenodd"/><text fill="#FFFFFF" font-family="Calibri,Calibri_MSFontService,sans-serif" font-weight="700" font-size="17" transform="translate(1085.19 79)">| Faturamento Total</text></g></svg>